<?xml version="1.0" encoding="UTF-8"?>
<svg width="156px" height="25px" viewBox="0 0 156 25" version="1.1" xmlns="http://www.w3.org/2000/svg" xmlns:xlink="http://www.w3.org/1999/xlink">
    <title>RemoteBunch</title>
    <g id="Page-1" stroke="none" stroke-width="1" fill="none" fill-rule="evenodd">
        <g id="002" transform="translate(-253.000000, -37.000000)" fill="#B3B3B3" fill-rule="nonzero">
            <path d="M274.56,61.216 C275.952,61.216 277.416,61.024 278.328,60.616 L278.328,57.472 C277.536,57.688 276.072,57.928 274.656,57.928 C270.408,57.928 266.832,55.912 264.336,50.608 C264,49.888 263.664,49.096 263.328,48.28 C265.2,47.488 266.616,45.76 266.616,43.408 C266.616,39.712 263.928,37.72 259.872,37.72 L253.872,37.72 L253.872,55 L257.496,55 L257.496,48.952 L260.016,48.952 L260.64,50.512 C263.544,58.216 268.488,61.216 274.56,61.216 Z M260.136,45.976 L257.496,45.976 L257.496,40.816 L260.04,40.816 C261.768,40.816 262.896,41.68 262.896,43.408 C262.896,45.16 261.792,45.976 260.136,45.976 Z M274.632,55.336 C276.768,55.336 278.376,54.856 279.12,54.472 L279.12,51.424 C278.448,51.808 276.672,52.312 274.968,52.312 C273.024,52.312 271.776,51.376 271.632,49.744 L279.504,49.744 C279.528,49.504 279.6,48.928 279.6,48.28 C279.6,45.304 277.704,42.664 274.008,42.664 C270.576,42.664 267.912,45.352 267.912,49 C267.912,52.672 270.504,55.336 274.632,55.336 Z M276.168,47.896 L271.632,47.896 C271.728,46.6 272.544,45.496 273.984,45.496 C275.448,45.496 276.216,46.6 276.168,47.896 Z M285.624,55 L285.624,49.744 C285.624,47.776 286.2,45.928 288.216,45.928 C289.416,45.928 289.752,46.864 289.752,47.992 L289.752,55 L293.328,55 L293.328,49.744 C293.328,47.8 293.856,45.928 295.896,45.928 C297.048,45.928 297.456,46.84 297.456,48.016 L297.456,55 L301.056,55 L301.056,47.488 C301.056,44.296 299.568,42.664 296.904,42.664 C295.248,42.664 293.808,43.672 292.896,45.064 C292.416,43.696 291.312,42.952 289.944,42.76 C289.56,42.712 289.152,42.712 288.768,42.784 C287.208,42.952 285.864,43.96 285.36,45.208 L285.312,45.208 C285.336,45.088 285.432,44.8 285.408,44.368 L285.312,43 L282.024,43 L282.024,55 L285.624,55 Z M309.624,55.336 C313.32,55.336 316.032,52.648 316.032,49 C316.032,45.352 313.32,42.664 309.624,42.664 C305.928,42.664 303.24,45.352 303.24,49 C303.24,52.648 305.928,55.336 309.624,55.336 Z M309.624,52.312 C307.92,52.312 306.624,50.992 306.624,49 C306.624,47.008 307.92,45.688 309.624,45.688 C311.328,45.688 312.648,47.008 312.648,49 C312.648,50.992 311.328,52.312 309.624,52.312 Z M322.872,55 L322.872,45.808 L325.32,45.808 L325.32,43 L322.872,43 L322.872,38.92 L319.296,38.92 L319.296,43 L317.016,43 L317.016,45.808 L319.296,45.808 L319.296,55 L322.872,55 Z M332.976,55.336 C335.112,55.336 336.72,54.856 337.464,54.472 L337.464,51.424 C336.792,51.808 335.016,52.312 333.312,52.312 C331.368,52.312 330.12,51.376 329.976,49.744 L337.848,49.744 C337.872,49.504 337.944,48.928 337.944,48.28 C337.944,45.304 336.048,42.664 332.352,42.664 C328.92,42.664 326.256,45.352 326.256,49 C326.256,52.672 328.848,55.336 332.976,55.336 Z M334.512,47.896 L329.976,47.896 C330.072,46.6 330.888,45.496 332.328,45.496 C333.792,45.496 334.56,46.6 334.512,47.896 Z M346.656,55 C350.544,55 353.232,53.272 353.232,49.96 C353.232,47.992 351.912,46.432 350.376,45.928 C351.6,45.4 352.584,44.2 352.584,42.568 C352.584,39.328 349.824,37.72 346.152,37.72 L340.56,37.72 L340.56,55 L346.656,55 Z M346.296,44.92 L344.088,44.92 L344.088,40.672 L346.392,40.672 C347.856,40.672 348.84,41.44 348.84,42.88 C348.84,43.84 348.384,44.512 347.688,44.776 C347.256,44.896 346.8,44.92 346.296,44.92 Z M346.824,52.048 L344.088,52.048 L344.088,47.416 L347.064,47.416 C348.384,47.416 349.44,48.208 349.44,49.72 C349.44,51.232 348.288,52.048 346.824,52.048 Z M361.344,55.336 C365.04,55.336 367.128,53.272 367.128,49.576 L367.128,43 L363.528,43 L363.528,48.448 C363.528,50.824 363.096,52.144 361.344,52.144 C359.568,52.144 359.136,50.824 359.136,48.448 L359.136,43 L355.536,43 L355.536,49.576 C355.536,53.272 357.648,55.336 361.344,55.336 Z M373.848,55 L373.848,49.024 C373.848,47.224 374.976,45.928 376.656,45.928 C377.952,45.928 378.288,46.912 378.288,48.088 L378.288,55 L381.888,55 L381.888,47.488 C381.888,44.32 380.424,42.664 377.712,42.664 C375.672,42.664 374.088,44.104 373.584,45.208 L373.536,45.208 C373.56,45.088 373.656,44.8 373.632,44.368 L373.536,43 L370.248,43 L370.248,55 L373.848,55 Z M390.48,55.336 C392.424,55.336 393.672,54.688 394.152,54.448 L394.152,51.208 C393.696,51.52 392.4,52.192 390.96,52.192 C389.016,52.192 387.72,50.944 387.72,49 C387.72,47.056 389.064,45.808 390.96,45.808 C392.208,45.808 393.408,46.312 394.08,46.792 L394.08,43.528 C393.6,43.288 392.4,42.664 390.48,42.664 C386.64,42.664 384.096,45.352 384.096,49 C384.096,52.648 386.64,55.336 390.48,55.336 Z M400.248,55 L400.248,49.024 C400.248,47.224 401.376,45.928 403.056,45.928 C404.352,45.928 404.688,46.912 404.688,48.088 L404.688,55 L408.288,55 L408.288,47.488 C408.288,44.32 406.824,42.664 404.112,42.664 C402.144,42.664 400.752,44.008 400.128,44.992 C400.128,44.752 400.176,44.224 400.176,43.672 L400.176,37.72 L396.648,37.72 L396.648,55 L400.248,55 Z" id="RemoteBunch"></path>
        </g>
    </g>
</svg>