<svg width="156" height="25" xmlns="http://www.w3.org/2000/svg"><path d="M21.56 24.216c1.392 0 2.856-.192 3.768-.6v-3.144c-.792.216-2.256.456-3.672.456-4.248 0-7.824-2.016-10.32-7.32a56.208 56.208 0 01-1.008-2.328c1.872-.792 3.288-2.52 3.288-4.872 0-3.696-2.688-5.688-6.744-5.688h-6V18h3.624v-6.048h2.52l.624 1.56c2.904 7.704 7.848 10.704 13.92 10.704zM7.136 8.976h-2.64v-5.16H7.04c1.728 0 2.856.864 2.856 2.592 0 1.752-1.104 2.568-2.76 2.568zm14.496 9.36c2.136 0 3.744-.48 4.488-.864v-3.048c-.672.384-2.448.888-4.152.888-1.944 0-3.192-.936-3.336-2.568h7.872c.024-.24.096-.816.096-1.464 0-2.976-1.896-5.616-5.592-5.616-3.432 0-6.096 2.688-6.096 6.336 0 3.672 2.592 6.336 6.72 6.336zm1.536-7.44h-4.536c.096-1.296.912-2.4 2.352-2.4 1.464 0 2.232 1.104 2.184 2.4zM32.624 18v-5.256c0-1.968.576-3.816 2.592-3.816 1.2 0 1.536.936 1.536 2.064V18h3.576v-5.256c0-1.944.528-3.816 2.568-3.816 1.152 0 1.56.912 1.56 2.088V18h3.6v-7.512c0-3.192-1.488-4.824-4.152-4.824-1.656 0-3.096 1.008-4.008 2.4-.48-1.368-1.584-2.112-2.952-2.304a3.866 3.866 0 00-1.176.024c-1.56.168-2.904 1.176-3.408 2.424h-.048c.024-.12.12-.408.096-.84L32.312 6h-3.288v12h3.6zm24 .336c3.696 0 6.408-2.688 6.408-6.336s-2.712-6.336-6.408-6.336S50.24 8.352 50.24 12s2.688 6.336 6.384 6.336zm0-3.024c-1.704 0-3-1.32-3-3.312 0-1.992 1.296-3.312 3-3.312s3.024 1.32 3.024 3.312c0 1.992-1.32 3.312-3.024 3.312zM69.872 18V8.808h2.448V6h-2.448V1.92h-3.576V6h-2.28v2.808h2.28V18h3.576zm10.104.336c2.136 0 3.744-.48 4.488-.864v-3.048c-.672.384-2.448.888-4.152.888-1.944 0-3.192-.936-3.336-2.568h7.872c.024-.24.096-.816.096-1.464 0-2.976-1.896-5.616-5.592-5.616-3.432 0-6.096 2.688-6.096 6.336 0 3.672 2.592 6.336 6.72 6.336zm1.536-7.44h-4.536c.096-1.296.912-2.4 2.352-2.4 1.464 0 2.232 1.104 2.184 2.4zM93.656 18c3.888 0 6.576-1.728 6.576-5.04 0-1.968-1.32-3.528-2.856-4.032C98.6 8.4 99.584 7.2 99.584 5.568c0-3.24-2.76-4.848-6.432-4.848H87.56V18h6.096zm-.36-10.08h-2.208V3.672h2.304c1.464 0 2.448.768 2.448 2.208 0 .96-.456 1.632-1.152 1.896-.432.12-.888.144-1.392.144zm.528 7.128h-2.736v-4.632h2.976c1.32 0 2.376.792 2.376 2.304 0 1.512-1.152 2.328-2.616 2.328zm14.52 3.288c3.696 0 5.784-2.064 5.784-5.76V6h-3.6v5.448c0 2.376-.432 3.696-2.184 3.696-1.776 0-2.208-1.32-2.208-3.696V6h-3.6v6.576c0 3.696 2.112 5.76 5.808 5.76zM120.848 18v-5.976c0-1.8 1.128-3.096 2.808-3.096 1.296 0 1.632.984 1.632 2.16V18h3.6v-7.512c0-3.168-1.464-4.824-4.176-4.824-2.04 0-3.624 1.44-4.128 2.544h-.048c.024-.12.12-.408.096-.84L120.536 6h-3.288v12h3.6zm16.632.336c1.944 0 3.192-.648 3.672-.888v-3.24c-.456.312-1.752.984-3.192.984-1.944 0-3.24-1.248-3.24-3.192 0-1.944 1.344-3.192 3.24-3.192 1.248 0 2.448.504 3.12.984V6.528c-.48-.24-1.68-.864-3.6-.864-3.84 0-6.384 2.688-6.384 6.336s2.544 6.336 6.384 6.336zm9.768-.336v-5.976c0-1.8 1.128-3.096 2.808-3.096 1.296 0 1.632.984 1.632 2.16V18h3.6v-7.512c0-3.168-1.464-4.824-4.176-4.824-1.968 0-3.36 1.344-3.984 2.328 0-.24.048-.768.048-1.32V.72h-3.528V18h3.6z" fill="#B3B3B3"/></svg>